<svg xmlns="http://www.w3.org/2000/svg" viewBox="0 0 48 48" id="glasses"><symbol id="New_Symbol_14" viewBox="-6.5 -6.5 13 13"><path fill="#ffd4c3" stroke="#504b46" stroke-linecap="round" stroke-linejoin="round" stroke-miterlimit="10" d="M0-6c2.2 0 4.1 1.5 4.7 3.5C6.3-2.5 6.4 0 5 0v1c0 2.8-2.2 5-5 5s-5-2.2-5-5V0c-1.4 0-1.3-2.5.2-2.5C-4.1-4.5-2.2-6 0-6z"></path><circle cx="-1.6" cy="-.1" r=".1" fill="#ffc258"></circle><path fill="#4f4b45" d="M-1.6.5c-.3 0-.6-.3-.6-.6s.2-.7.6-.7c.3 0 .6.3.6.7s-.3.6-.6.6z"></path><circle cx="1.6" cy="-.1" r=".1" fill="#ffc258"></circle><path fill="#4f4b45" d="M1.6.5C1.3.5 1 .2 1-.1s.3-.6.6-.6.6.3.6.6-.2.6-.6.6z"></path><circle cx="-3" cy="-1.5" r=".5" fill="#fabfa5"></circle><circle cx="3" cy="-1.5" r=".5" fill="#fabfa5"></circle><path fill="none" stroke="#504b46" stroke-linecap="round" stroke-linejoin="round" stroke-miterlimit="10" d="M-1.2-3c.8-.5 1.7-.5 2.5 0"></path></symbol><g id="Icons"><g id="XMLID_1979_"><path id="XMLID_1883_" fill="#87898c" d="M25.7 19.6c0 1.5.3 3 .9 4.5 1 2.5 3.2 4.3 5.9 4.7l6 .9c1.2.2 2.4 0 3.6-.5 2.2-1 3.7-3.1 3.7-5.5v-7.5h.5c.5 0 1-.4 1-.9v-1.9c0-.5-.4-.9-1-.9H44.4l-12.9.8c-1.8.1-3.4.8-4.7 2.1-.6.6-1.5.9-2.4.9h-.7c-.9 0-1.7-.3-2.4-.9-1.3-1.2-2.9-2-4.7-2.1l-12.9-.9H1.8c-.5 0-1 .4-1 .9v1.9c0 .5.4.9 1 .9h.5v7.5c0 2.4 1.4 4.5 3.7 5.5 1.1.5 2.4.7 3.6.5l6-.9c2.7-.4 5-2.2 5.9-4.7.6-1.4.9-2.9.9-4.5 0-.3.2-.5.5-.5h2.3c.3.1.5.3.5.6z"></path><path id="XMLID_1882_" fill="#bdbec0" d="M46.2 12.4H44.3l-12.9.8c-1.8.1-3.4.8-4.7 2.1-.6.6-1.5.9-2.4.9h-.7c-.9 0-1.7-.3-2.4-.9-1.3-1.2-2.9-2-4.7-2.1l-12.8-.8H1.8c-.5 0-1 .4-1 .9v2c.1-.5.5-.8 1-.8H3.7l12.9.8c1.8.1 3.4.8 4.7 2.1.6.6 1.5.9 2.4.9h.7c.9 0 1.7-.3 2.4-.9 1.3-1.2 2.9-2 4.7-2.1l12.9-.8H46.3c.5 0 .9.4 1 .8v-2c-.1-.5-.6-.9-1.1-.9z"></path><path id="XMLID_1881_" fill="none" stroke="#45413c" stroke-linecap="round" stroke-linejoin="round" stroke-miterlimit="10" d="M25.7 19.6c0 1.5.3 3 .9 4.5 1 2.5 3.2 4.3 5.9 4.7l6 .9c1.2.2 2.4 0 3.6-.5 2.2-1 3.7-3.1 3.7-5.5v-7.5h.5c.5 0 1-.4 1-.9v-1.9c0-.5-.4-.9-1-.9H44.4l-12.9.8c-1.8.1-3.4.8-4.7 2.1-.6.6-1.5.9-2.4.9h-.7c-.9 0-1.7-.3-2.4-.9-1.3-1.2-2.9-2-4.7-2.1l-12.9-.9H1.8c-.5 0-1 .4-1 .9v1.9c0 .5.4.9 1 .9h.5v7.5c0 2.4 1.4 4.5 3.7 5.5 1.1.5 2.4.7 3.6.5l6-.9c2.7-.4 5-2.2 5.9-4.7.6-1.4.9-2.9.9-4.5 0-.3.2-.5.5-.5h2.3c.3.1.5.3.5.6z"></path><ellipse id="XMLID_1880_" cx="23.4" cy="34.1" fill="#45413c" opacity=".15" rx="11.2" ry="1.5"></ellipse><path id="XMLID_1879_" fill="#00b8f0" d="M14.2 26.8l-4.6.6c-2.4.3-4.5-1.4-4.7-3.8l-.3-4.4c-.2-2.3 1.8-4.3 4.1-4.1l7.8.5c1.9.1 3.3 1.7 3.2 3.6l-.1 1.7c-.1 3-2.4 5.5-5.4 5.9z"></path><path id="XMLID_1464_" fill="#4acfff" d="M16.5 15.6l-7.8-.5c-2.3-.1-4.3 1.8-4.1 4.1l.3 4.4c.2 2.4 2.3 4.1 4.7 3.8h.3l6.9-11.7c-.1 0-.2-.1-.3-.1z"></path><path id="XMLID_1450_" fill="#00b8f0" d="M33.8 26.8l4.6.6c2.4.3 4.5-1.4 4.7-3.8l.3-4.4c.2-2.3-1.8-4.3-4.1-4.1l-7.8.5c-1.9.1-3.3 1.7-3.2 3.6l.1 1.7c.1 3 2.4 5.5 5.4 5.9z"></path><path id="XMLID_1449_" fill="#4acfff" d="M39.3 15.1l-7.8.5c-1.9.1-3.3 1.7-3.2 3.6l.1 1.7c.1 3 2.4 5.5 5.4 5.9l2.1.3 6.4-10.8c-.8-.8-1.8-1.2-3-1.2z"></path><path id="XMLID_1448_" fill="none" stroke="#45413c" stroke-linecap="round" stroke-linejoin="round" stroke-miterlimit="10" d="M14.2 26.8l-4.6.6c-2.4.3-4.5-1.4-4.7-3.8l-.3-4.4c-.2-2.3 1.8-4.3 4.1-4.1l7.8.5c1.9.1 3.3 1.7 3.2 3.6l-.1 1.7c-.1 3-2.4 5.5-5.4 5.9z"></path><path id="XMLID_1447_" fill="none" stroke="#45413c" stroke-linecap="round" stroke-linejoin="round" stroke-miterlimit="10" d="M33.8 26.8l4.6.6c2.4.3 4.5-1.4 4.7-3.8l.3-4.4c.2-2.3-1.8-4.3-4.1-4.1l-7.8.5c-1.9.1-3.3 1.7-3.2 3.6l.1 1.7c.1 3 2.4 5.5 5.4 5.9z"></path></g></g></svg>